<svg xmlns="http://www.w3.org/2000/svg" viewBox="1502.819 3647 68.862 68.862"><defs><style>.a,.b{fill:#178254;}.b{stroke:#178254;stroke-miterlimit:10;}</style></defs><g transform="translate(1502.819 3647)"><path class="a" d="M34.431,68.862A34.431,34.431,0,1,1,68.862,34.431,34.481,34.481,0,0,1,34.431,68.862Zm0-64.058A29.627,29.627,0,1,0,64.058,34.431,29.662,29.662,0,0,0,34.431,4.8Z"/><path class="b" d="M45.534,12.7H13.825A5.912,5.912,0,0,0,7.9,18.625V35.28a5.912,5.912,0,0,0,5.925,5.925H45.694A5.912,5.912,0,0,0,51.62,35.28V18.465A6.022,6.022,0,0,0,45.534,12.7ZM36.726,25.832c3.523-2.722,9.128-7.046,11.37-8.808a2.38,2.38,0,0,1,.32,1.441V35.12A3.769,3.769,0,0,1,48.1,36.4Zm8.808-10.089a3.017,3.017,0,0,1,1.281.32C43.292,18.786,33.843,26.152,32.4,27.113a4.138,4.138,0,0,1-2.883.961h0a5.7,5.7,0,0,1-3.043-1.121L12.384,16.063a3.769,3.769,0,0,1,1.281-.32ZM11.263,36.4a3.017,3.017,0,0,1-.32-1.281V18.465a4.676,4.676,0,0,1,.32-1.441l11.37,8.808ZM13.825,38a2.705,2.705,0,0,1-1.6-.48l11.691-10.73,1.762,1.281a7.706,7.706,0,0,0,4,1.441h.16a6.568,6.568,0,0,0,3.683-1.281c.32-.16.961-.8,1.922-1.441l11.691,10.73a2.705,2.705,0,0,1-1.6.48Z" transform="translate(4.751 7.638)"/></g></svg>