<svg xmlns="http://www.w3.org/2000/svg" viewBox="0 0 106.1 36.73"><defs><style>.cls-1{fill:#323634}.cls-2{fill:#3cb149}</style></defs><g id="Layer_2" data-name="Layer 2"><g id="Your_Artworks_Here" data-name="Your Artworks Here"><path class="cls-1" d="M20.44 7.83L40.88 0v26.71L20.44 36.73 0 26.71V0l20.44 7.83zM51.7 16.18l2.44-7H57L53.14 19.2h-2.88L46.45 9.14h2.8zM63.13 19.2H58v-2h1.3v-6H58v-2h5.18v2h-1.34v6h1.29zM67.59 19.24a2.83 2.83 0 0 1-2.07-.65 2.79 2.79 0 0 1-.66-2.05V12a2.94 2.94 0 0 1 .68-2.17 3 3 0 0 1 2.19-.67h5.18v2h-4.6a.77.77 0 0 0-.87.86v4.58a.67.67 0 0 0 .72.71h2.17a2.53 2.53 0 0 0 .77-.12h1.81v1.88a10.37 10.37 0 0 1-1.91.18h-3.41zM79.67 19.2h-2.59v-8h-3v-2h8.63v2h-3zM93.47 16.47a3 3 0 0 1-.68 2.19 3 3 0 0 1-2.2.69H87a3 3 0 0 1-2.19-.69 3 3 0 0 1-.69-2.19v-4.6a3 3 0 0 1 .69-2.19A3 3 0 0 1 87 9h3.59a3 3 0 0 1 2.2.69 3 3 0 0 1 .68 2.19zm-2.59-4.6A.76.76 0 0 0 90 11h-2.43a.76.76 0 0 0-.86.86v4.6a.76.76 0 0 0 .86.86H90a.76.76 0 0 0 .86-.86zM95.63 9.14h6a3 3 0 0 1 2.2.68 3 3 0 0 1 .68 2.19v1.3a3.66 3.66 0 0 1-.39 1.85 2 2 0 0 1-1.26.88l1.79 3.16h-2.8l-1.65-3h-2v3h-2.57zM102 12a.76.76 0 0 0-.86-.86h-2.93v3h2.88a.76.76 0 0 0 .86-.86z"/><path class="cls-2" d="M35.46 25.2h-7.11v-2.77h1.77v-8.36h-1.77V11.3h7.11v2.77h-1.78v8.36h1.78zM9.27 11.3H5.41l5.24 13.84h3.96l5.24-13.84h-3.86l-3.36 9.69-3.36-9.69zM21.29 14.07h6.33V11.3h-7.11l-.08.22-3.87 10.23a3.66 3.66 0 0 0 .9 2.55 3.89 3.89 0 0 0 2.84.9h7.32v-2.67H21.1a1 1 0 0 1-.73-.27 1 1 0 0 1-.26-.71v-6.3a1 1 0 0 1 1.18-1.18zM51 24.19a1.25 1.25 0 0 0-.44-.34 1.06 1.06 0 0 0-.51-.11 1.2 1.2 0 0 0-.55.11 1.08 1.08 0 0 0-.4.3 1.23 1.23 0 0 0-.23.44 1.91 1.91 0 0 0-.08.54 1.61 1.61 0 0 0 .09.54 1.28 1.28 0 0 0 .26.44 1.15 1.15 0 0 0 .91.41 1.09 1.09 0 0 0 .95-.46l.47.44a1.56 1.56 0 0 1-.64.45 2.08 2.08 0 0 1-.78.15 2 2 0 0 1-.79-.15 1.7 1.7 0 0 1-.61-.4 1.86 1.86 0 0 1-.39-.63 2.27 2.27 0 0 1 0-1.57 1.86 1.86 0 0 1 .39-.63 2 2 0 0 1 .61-.41 2 2 0 0 1 .79-.15 2.09 2.09 0 0 1 .79.15 1.6 1.6 0 0 1 .65.44zM52 25.13a2.07 2.07 0 0 1 .15-.8 1.94 1.94 0 0 1 .42-.62 1.88 1.88 0 0 1 .63-.4 2.11 2.11 0 0 1 .8-.15 2.07 2.07 0 0 1 .8.15 1.7 1.7 0 0 1 .63.4 1.79 1.79 0 0 1 .42.62 2.21 2.21 0 0 1 0 1.6 1.79 1.79 0 0 1-.42.62 1.7 1.7 0 0 1-.63.4 2.07 2.07 0 0 1-.8.15 2.11 2.11 0 0 1-.8-.15 1.88 1.88 0 0 1-.63-.4 1.94 1.94 0 0 1-.42-.62 2.07 2.07 0 0 1-.15-.8zm.67 0a1.42 1.42 0 0 0 .1.55 1.19 1.19 0 0 0 .68.73 1.26 1.26 0 0 0 .55.11 1.23 1.23 0 0 0 .55-.11 1.37 1.37 0 0 0 .42-.29 1.25 1.25 0 0 0 .27-.44 1.73 1.73 0 0 0 0-1.1 1.25 1.25 0 0 0-.27-.44 1.37 1.37 0 0 0-.42-.29 1.23 1.23 0 0 0-.55-.11 1.26 1.26 0 0 0-.55.11 1.19 1.19 0 0 0-.68.73 1.42 1.42 0 0 0-.15.55zM56.92 24.15v-.48-.41h.59v.61a.87.87 0 0 1 .18-.26 1.27 1.27 0 0 1 .28-.23 1.19 1.19 0 0 1 .36-.16 1.49 1.49 0 0 1 .43-.06 1.75 1.75 0 0 1 .64.11 1.28 1.28 0 0 1 .44.32 1.24 1.24 0 0 1 .26.48 2.07 2.07 0 0 1 .08.62V27h-.62v-2.25a1.18 1.18 0 0 0-.21-.74.76.76 0 0 0-.65-.27 1.21 1.21 0 0 0-.52.1.88.88 0 0 0-.36.3 1.55 1.55 0 0 0-.21.45 2.65 2.65 0 0 0-.07.59V27h-.62zM61.45 26a1.67 1.67 0 0 0 .4.36 1 1 0 0 0 .56.14h.29a.81.81 0 0 0 .27-.11.52.52 0 0 0 .19-.17.46.46 0 0 0 .07-.26.37.37 0 0 0-.07-.25.49.49 0 0 0-.18-.17.93.93 0 0 0-.25-.1l-.3-.08c-.17 0-.34-.08-.5-.12a2 2 0 0 1-.42-.19.92.92 0 0 1-.29-.3 1 1 0 0 1-.11-.47.9.9 0 0 1 .12-.48 1.07 1.07 0 0 1 .32-.35 1.69 1.69 0 0 1 .45-.21 2.24 2.24 0 0 1 .51-.07 1.64 1.64 0 0 1 .74.16 1.11 1.11 0 0 1 .53.52l-.52.35a.84.84 0 0 0-.79-.45h-.26a.79.79 0 0 0-.23.09.73.73 0 0 0-.18.17.44.44 0 0 0-.06.23.29.29 0 0 0 .07.2.57.57 0 0 0 .21.15 2.09 2.09 0 0 0 .3.11l.36.08a2.32 2.32 0 0 1 .47.13 1.2 1.2 0 0 1 .39.2.84.84 0 0 1 .27.32 1.09 1.09 0 0 1 .09.47 1 1 0 0 1-.46.91A1.68 1.68 0 0 1 63 27a2.3 2.3 0 0 1-1.42 0 1.53 1.53 0 0 1-.58-.6zM66.82 23.79h-1.1V26a.6.6 0 0 0 .06.27.42.42 0 0 0 .17.18.56.56 0 0 0 .32.07h.28a.79.79 0 0 0 .27-.1v.57a1.89 1.89 0 0 1-.36.11h-.37a1.35 1.35 0 0 1-.54-.09.7.7 0 0 1-.31-.25 1.11 1.11 0 0 1-.15-.4 4.05 4.05 0 0 1 0-.52v-2.05h-.82v-.53h.82v-1.07h.62v1.07h1.1zM67.59 24.15v-.48-.41h.59v.61a1.51 1.51 0 0 1 .18-.26 1.27 1.27 0 0 1 .28-.23 1.46 1.46 0 0 1 .36-.16 1.49 1.49 0 0 1 .43-.06h.26v.63a1.27 1.27 0 0 0-.34 0 .93.93 0 0 0-.83.37 1.69 1.69 0 0 0-.26 1V27h-.63zM73.67 26.11V27h-.59v-.62a.91.91 0 0 1-.18.27 1.64 1.64 0 0 1-.28.23 1.5 1.5 0 0 1-.36.16 1.44 1.44 0 0 1-.43.06 1.69 1.69 0 0 1-.63-.1 1.21 1.21 0 0 1-.71-.8 2.45 2.45 0 0 1-.08-.62v-2.32H71v2.25a1.18 1.18 0 0 0 .21.74.76.76 0 0 0 .65.27 1.18 1.18 0 0 0 .52-.1.88.88 0 0 0 .36-.3 1.33 1.33 0 0 0 .21-.45 2.22 2.22 0 0 0 .07-.59v-1.82h.62zM77.52 24.19a1.22 1.22 0 0 0-.43-.34 1.12 1.12 0 0 0-.51-.11 1.25 1.25 0 0 0-.56.11 1 1 0 0 0-.39.3 1.25 1.25 0 0 0-.24.44 1.91 1.91 0 0 0-.08.54 1.61 1.61 0 0 0 .09.54 1.46 1.46 0 0 0 .26.44 1.19 1.19 0 0 0 .92.41 1.11 1.11 0 0 0 1-.46l.46.44a1.5 1.5 0 0 1-.64.45 2 2 0 0 1-.77.15 2.07 2.07 0 0 1-.8-.15 1.7 1.7 0 0 1-.61-.4 1.86 1.86 0 0 1-.39-.63 2.27 2.27 0 0 1 0-1.57 1.8 1.8 0 0 1 1-1 2 2 0 0 1 .79-.15 2 2 0 0 1 .78.15 1.7 1.7 0 0 1 .66.44zM80.76 23.79h-1.1V26a.77.77 0 0 0 .07.27.33.33 0 0 0 .17.18.56.56 0 0 0 .32.07h.28a1 1 0 0 0 .27-.1v.57a1.6 1.6 0 0 1-.35.11h-.38a1.3 1.3 0 0 1-.53-.09.65.65 0 0 1-.31-.25.84.84 0 0 1-.15-.4 2.75 2.75 0 0 1 0-.52v-2.05h-.81v-.53H79v-1.07h.63v1.07h1.1zM81.45 21.79a.44.44 0 0 1 .45-.45.44.44 0 0 1 .33.13.44.44 0 0 1 .13.32.44.44 0 0 1-.46.46.41.41 0 0 1-.32-.13.42.42 0 0 1-.13-.33zm.14 1.47h.63V27h-.63zM83.24 25.13a2.07 2.07 0 0 1 .15-.8 1.79 1.79 0 0 1 .42-.62 1.7 1.7 0 0 1 .63-.4 2.21 2.21 0 0 1 1.6 0 1.7 1.7 0 0 1 .63.4 1.79 1.79 0 0 1 .42.62 2.21 2.21 0 0 1 0 1.6 1.79 1.79 0 0 1-.42.62A1.7 1.7 0 0 1 86 27a2.21 2.21 0 0 1-1.6 0 1.7 1.7 0 0 1-.63-.4 1.79 1.79 0 0 1-.42-.62 2.07 2.07 0 0 1-.11-.85zm.67 0a1.63 1.63 0 0 0 .09.55 1.41 1.41 0 0 0 .27.44 1.37 1.37 0 0 0 .42.29 1.43 1.43 0 0 0 1.1 0 1.37 1.37 0 0 0 .42-.29 1.41 1.41 0 0 0 .27-.44 1.73 1.73 0 0 0 0-1.1 1.41 1.41 0 0 0-.27-.44 1.37 1.37 0 0 0-.42-.29 1.43 1.43 0 0 0-1.1 0 1.37 1.37 0 0 0-.42.29 1.41 1.41 0 0 0-.27.44 1.63 1.63 0 0 0-.09.55zM88.21 24.15v-.48-.41h.59v.61a.87.87 0 0 1 .18-.26 1.27 1.27 0 0 1 .28-.23 1.19 1.19 0 0 1 .36-.16 1.44 1.44 0 0 1 .43-.06 1.73 1.73 0 0 1 .63.11 1.21 1.21 0 0 1 .71.8 2.45 2.45 0 0 1 .08.62V27h-.62v-2.25a1.18 1.18 0 0 0-.21-.74.76.76 0 0 0-.65-.27 1.18 1.18 0 0 0-.52.1.88.88 0 0 0-.36.3 1.17 1.17 0 0 0-.21.45 2.17 2.17 0 0 0-.07.59V27h-.62zM94.79 21.79a.48.48 0 0 1 .13-.32.44.44 0 0 1 .33-.13.42.42 0 0 1 .32.13.44.44 0 0 1 .13.32.43.43 0 0 1-.45.46.44.44 0 0 1-.46-.46zm.15 1.47h.62V27h-.62zM96.8 24.15v-.48-.41h.59v.61a.87.87 0 0 1 .18-.26 1.27 1.27 0 0 1 .28-.23 1.19 1.19 0 0 1 .36-.16 1.44 1.44 0 0 1 .43-.06 1.79 1.79 0 0 1 .64.11 1.28 1.28 0 0 1 .44.32 1.24 1.24 0 0 1 .26.48 2.07 2.07 0 0 1 .08.62V27h-.62v-2.25a1.18 1.18 0 0 0-.21-.74.76.76 0 0 0-.65-.27 1.21 1.21 0 0 0-.52.1.88.88 0 0 0-.36.3 1.55 1.55 0 0 0-.21.45 2.65 2.65 0 0 0-.07.59V27h-.62zM103.91 24.19a1.22 1.22 0 0 0-.43-.34 1.09 1.09 0 0 0-.51-.11 1.2 1.2 0 0 0-.55.11 1 1 0 0 0-.4.3 1.43 1.43 0 0 0-.24.44 1.91 1.91 0 0 0-.08.54 1.4 1.4 0 0 0 .1.54 1.26 1.26 0 0 0 .25.44 1.08 1.08 0 0 0 .4.3 1.23 1.23 0 0 0 1.47-.35l.46.44a1.5 1.5 0 0 1-.64.45 2 2 0 0 1-.77.15 2 2 0 0 1-.79-.15 1.74 1.74 0 0 1-.62-.4 2 2 0 0 1-.53-1.42 2.21 2.21 0 0 1 .14-.78 2.05 2.05 0 0 1 .4-.63 1.87 1.87 0 0 1 .61-.41 2 2 0 0 1 .79-.15 2.09 2.09 0 0 1 .79.15 1.75 1.75 0 0 1 .65.44zM105.62 26.09a.46.46 0 0 1 .34.14.44.44 0 0 1 .14.34.48.48 0 0 1-.14.34.49.49 0 0 1-.34.14.49.49 0 0 1-.33-.14.45.45 0 0 1-.15-.34.48.48 0 0 1 .14-.34.49.49 0 0 1 .34-.14z"/></g></g></svg>