<svg xmlns="http://www.w3.org/2000/svg" viewBox="1375 -10 186 63.503"><defs><style>.a,.b{fill:#323634;}.b{font-size:26px;font-family:"Russo One";letter-spacing:0.043em;}.c,.d{fill:#3cb149;}.c{font-size:15px;font-family:"Source Sans Pro";letter-spacing:0.12em;}</style></defs><g transform="translate(496 -34)"><g transform="translate(879 24)"><path class="a" d="M68.626,52.911,104.653,39.1V84.663L68.626,102.6,32.6,82.178V39.1Z" transform="translate(-32.6 -39.1)"/></g><text class="b" transform="translate(960 57)"><tspan x="0" y="0">VICTOR</tspan></text><text class="c" transform="translate(963 70)"><tspan x="0" y="0">concrete inc.</tspan></text><g transform="translate(888.536 43.913)"><path class="d" d="M181.933,118.117H169.4v-4.9h3.142V98.5H169.4V93.6h12.533v4.9H178.79v14.725h3.142Z" transform="translate(-128.952 -93.6)"/><path class="d" d="M65.5,93.6H58.7l9.244,24.407h6.979L84.167,93.6h-6.8l-5.956,17.1Z" transform="translate(-58.7 -93.6)"/><path class="d" d="M120.831,98.5h11.144V93.6H119.442l-.146.4-6.8,18.013a6.457,6.457,0,0,0,1.571,4.494c1.06,1.06,2.74,1.571,5.006,1.571h12.9v-4.713H120.465a1.637,1.637,0,0,1-1.754-1.754V100.506A1.862,1.862,0,0,1,120.831,98.5Z" transform="translate(-92.843 -93.6)"/></g></g></svg>
