<svg xmlns="http://www.w3.org/2000/svg" viewBox="0 0 197.17 177.19"><defs><style>.cls-1{fill:#323634;}.cls-2{fill:#3cb149;}</style></defs><title>Victor Concrete, Inc. (VCI)</title><g id="Layer_2" data-name="Layer 2"><g id="Layer_1-2" data-name="Layer 1"><polygon class="cls-1" points="98.59 37.77 197.17 0 197.17 128.86 98.59 177.19 0 128.86 0 0 98.59 37.77"/><path class="cls-2" d="M171.06,121.55H136.73V108.2h8.58V67.86h-8.58V54.51h34.33V67.86h-8.58V108.2h8.58Z"/><polygon class="cls-2" points="44.71 54.51 26.11 54.51 51.39 121.27 70.46 121.27 95.73 54.51 77.14 54.51 60.92 101.24 44.71 54.51"/><path class="cls-2" d="M102.71,67.86h30.52V54.51H98.94l-.4,1.06L79.86,104.9c.2,5.51,1.64,9.62,4.35,12.31q4.38,4.35,13.73,4.34h35.29V108.68H101.76A4.43,4.43,0,0,1,97,103.93V73.56Q97,67.86,102.71,67.86Z"/></g></g></svg>
