<svg xmlns="http://www.w3.org/2000/svg" viewBox="0 0 505.09 177.19">
  <defs>
    <style>
      .cls-1{fill:#323634;}.cls-2{fill:#3cb149;}
    </style>
  </defs>
  <title>
    logo_dark
  </title>
  <g id="Layer_2" data-name="Layer 2">
    <g id="Objects">
      <path class="cls-1" d="M98.59 37.77L197.17 0v128.86l-98.58 48.33L0 128.86V0l98.59 37.77zm150.79 40.29l11.79-34h13.52l-18.38 48.56h-13.87l-18.38-48.55h13.53zm55.14 14.56h-25v-9.71h6.24V53.78h-6.24v-9.71h25v9.71h-6.25v29.13h6.25zm21.48.21q-6.81 0-10-3.16t-3.19-9.89v-22q0-7.22 3.29-10.48t10.58-3.26h25v9.71h-22.2q-4.16 0-4.16 4.14V80a3.22 3.22 0 0 0 3.47 3.45h10.44a11.94 11.94 0 0 0 3.71-.58h8.74v9.06a49.23 49.23 0 0 1-9.23.89H326zm58.28-.21h-12.49V53.78h-14.56v-9.71h41.61v9.71h-14.56zm66.58-13.18q0 7.29-3.3 10.58T437 93.31h-17.35q-7.29 0-10.58-3.29t-3.29-10.58V57.25q0-7.29 3.29-10.58t10.58-3.29H437q7.27 0 10.57 3.29t3.3 10.58zm-12.49-22.19c0-2.78-1.38-4.16-4.16-4.16h-11.79c-2.77 0-4.16 1.38-4.16 4.16v22.19c0 2.78 1.39 4.16 4.16 4.16h11.79c2.78 0 4.16-1.38 4.16-4.16zm22.89-13.18h29.13q7.29 0 10.58 3.29t3.29 10.58v6.24q0 5.76-1.9 8.95a9.34 9.34 0 0 1-6.07 4.23L505 92.62h-13.57l-8-14.56h-9.71v14.56h-12.46zm30.52 13.87q0-4.15-4.16-4.16h-13.87v14.57h13.87q4.15 0 4.16-4.17z"/>
      <path class="cls-2" d="M251.91 116.66a5 5 0 0 0-1.92-1.73 5.7 5.7 0 0 0-2.73-.68 7.17 7.17 0 0 0-2.87.56 6.75 6.75 0 0 0-2.19 1.55 6.91 6.91 0 0 0-1.39 2.33 8.47 8.47 0 0 0-.49 2.89 8.35 8.35 0 0 0 .49 2.87 7.1 7.1 0 0 0 1.37 2.3 6.29 6.29 0 0 0 2.17 1.55 7 7 0 0 0 2.87.56 6 6 0 0 0 2.95-.66 5.91 5.91 0 0 0 2-1.7l2 1.47a8.51 8.51 0 0 1-2.85 2.29 8.84 8.84 0 0 1-4.05.85 10.58 10.58 0 0 1-4-.72 8.73 8.73 0 0 1-3-2 9.21 9.21 0 0 1-2-3 10.66 10.66 0 0 1 0-7.6 9.11 9.11 0 0 1 2-3 8.75 8.75 0 0 1 3-2 10.58 10.58 0 0 1 4-.72 9.42 9.42 0 0 1 3.7.8 7.28 7.28 0 0 1 3.05 2.34zm28.22 4.92a9.89 9.89 0 0 1-.72 3.8 9.15 9.15 0 0 1-2 3 8.91 8.91 0 0 1-3.06 2 10.9 10.9 0 0 1-7.79 0 8.91 8.91 0 0 1-3.06-2 9.31 9.31 0 0 1-2-3 10.52 10.52 0 0 1 0-7.6 9.21 9.21 0 0 1 2-3 8.93 8.93 0 0 1 3.06-2 10.9 10.9 0 0 1 7.79 0 8.93 8.93 0 0 1 3.06 2 9.05 9.05 0 0 1 2 3 9.85 9.85 0 0 1 .72 3.8zm-2.79 0a8.36 8.36 0 0 0-.49-2.85 7 7 0 0 0-1.37-2.33 6.55 6.55 0 0 0-2.18-1.57 6.92 6.92 0 0 0-2.86-.58 6.84 6.84 0 0 0-2.85.58 6.53 6.53 0 0 0-2.15 1.57 6.89 6.89 0 0 0-1.38 2.33 8.7 8.7 0 0 0 0 5.7 6.85 6.85 0 0 0 1.38 2.32 6.21 6.21 0 0 0 2.15 1.55 6.84 6.84 0 0 0 2.85.56 6.92 6.92 0 0 0 2.86-.56 6.23 6.23 0 0 0 2.18-1.55 7 7 0 0 0 1.37-2.32 8.45 8.45 0 0 0 .49-2.85zm14.66-9.07c.05.49.09 1 .12 1.63s0 1.08 0 1.47h.07a6 6 0 0 1 2.52-2.58 7.37 7.37 0 0 1 3.69-1 6.38 6.38 0 0 1 5.17 2.06 8.15 8.15 0 0 1 1.72 5.42v11.13h-2.63v-10a13.74 13.74 0 0 0-.23-2.6 5.4 5.4 0 0 0-.8-2 3.75 3.75 0 0 0-1.51-1.3 5.39 5.39 0 0 0-2.38-.47A5 5 0 0 0 294 116a6.35 6.35 0 0 0-1.24 2.21 9.58 9.58 0 0 0-.47 3.15v9.31h-2.63V114.6s-.06-1.47-.12-2.09zm37.11 4.15a5 5 0 0 0-1.92-1.73 5.7 5.7 0 0 0-2.73-.68 7.13 7.13 0 0 0-2.87.56 6.52 6.52 0 0 0-3.58 3.88 8.23 8.23 0 0 0-.49 2.89 8.12 8.12 0 0 0 .49 2.87 7.1 7.1 0 0 0 1.37 2.3 6.29 6.29 0 0 0 2.17 1.55 7 7 0 0 0 2.87.56 6.1 6.1 0 0 0 2.95-.66 5.91 5.91 0 0 0 2-1.7l2 1.47a8.72 8.72 0 0 1-2.85 2.29 8.84 8.84 0 0 1-4.05.85 10.58 10.58 0 0 1-4-.72 8.73 8.73 0 0 1-3-2 9.21 9.21 0 0 1-2-3 10.66 10.66 0 0 1 0-7.6 9.11 9.11 0 0 1 2-3 8.75 8.75 0 0 1 3-2 10.58 10.58 0 0 1 4-.72 9.42 9.42 0 0 1 3.7.8 7.25 7.25 0 0 1 3 2.34zm10.15-2.06c0-.77-.06-1.47-.11-2.09h2.52c.05.49.09 1 .11 1.63s0 1.08 0 1.47h.08a6.26 6.26 0 0 1 2.32-2.58 6.37 6.37 0 0 1 3.49-1h.91a5.38 5.38 0 0 1 .84.16l-.35 2.52a5.09 5.09 0 0 0-.78-.16 7.85 7.85 0 0 0-1.08-.08 5.38 5.38 0 0 0-2 .39 4.26 4.26 0 0 0-1.68 1.22 6.4 6.4 0 0 0-1.17 2.12 9.9 9.9 0 0 0-.44 3.12v9.28h-2.62v-14.1c0-.5-.01-1.12-.04-1.9zm33.68 6.4v.59a5 5 0 0 1 0 .65h-15a7.07 7.07 0 0 0 .55 2.56 6.37 6.37 0 0 0 1.39 2.09 6.66 6.66 0 0 0 2.1 1.42 6.94 6.94 0 0 0 6.14-.43 7.12 7.12 0 0 0 2.27-2.19l2 1.55a9.78 9.78 0 0 1-3.58 3 10.13 10.13 0 0 1-4.21.89 9.62 9.62 0 0 1-3.74-.72 8.58 8.58 0 0 1-3-2 9.54 9.54 0 0 1-2-3 9.89 9.89 0 0 1-.72-3.8 10.23 10.23 0 0 1 .7-3.8 9.22 9.22 0 0 1 1.94-3 8.75 8.75 0 0 1 2.9-2 9.05 9.05 0 0 1 3.61-.72 9.24 9.24 0 0 1 3.76.72 7.71 7.71 0 0 1 2.71 1.94 8.4 8.4 0 0 1 1.65 2.85 10.67 10.67 0 0 1 .53 3.4zm-2.67-.85a6.55 6.55 0 0 0-1.65-4.24 5.56 5.56 0 0 0-4.36-1.69 6 6 0 0 0-2.44.49 6.51 6.51 0 0 0-2 1.31 6.69 6.69 0 0 0-1.36 1.9 6.24 6.24 0 0 0-.58 2.23zm20.38-5.43h-5.11v10.58a6 6 0 0 0 .19 1.66 2.41 2.41 0 0 0 .56 1 2 2 0 0 0 .87.51 4.23 4.23 0 0 0 1.09.13 4.7 4.7 0 0 0 1.14-.15 6.23 6.23 0 0 0 1.14-.43l.12 2.29a7.76 7.76 0 0 1-1.45.4 9.4 9.4 0 0 1-1.65.14 6.66 6.66 0 0 1-1.55-.2 3.78 3.78 0 0 1-1.51-.73 3.88 3.88 0 0 1-1.14-1.47 5.67 5.67 0 0 1-.45-2.45v-11.28h-3.76v-2.21h3.76v-5.12h2.64v5.12h5.11zm24.49 6.28v.59a5 5 0 0 1 0 .65h-15a6.86 6.86 0 0 0 .54 2.56 6.4 6.4 0 0 0 1.4 2.09 6.61 6.61 0 0 0 2.09 1.42 6.94 6.94 0 0 0 6.14-.43 7.12 7.12 0 0 0 2.27-2.19l2 1.55a9.78 9.78 0 0 1-3.58 3 10.13 10.13 0 0 1-4.21.89 9.62 9.62 0 0 1-3.74-.72 8.77 8.77 0 0 1-3-2 9.54 9.54 0 0 1-2-3 10.08 10.08 0 0 1-.71-3.8 10.23 10.23 0 0 1 .69-3.8 9.22 9.22 0 0 1 1.94-3 9 9 0 0 1 6.51-2.72 9.21 9.21 0 0 1 3.76.72 7.62 7.62 0 0 1 2.71 1.94 8.08 8.08 0 0 1 1.65 2.85 10.41 10.41 0 0 1 .54 3.4zm-2.67-.85a6.55 6.55 0 0 0-1.65-4.24 5.56 5.56 0 0 0-4.36-1.69 6 6 0 0 0-2.44.49 6.51 6.51 0 0 0-2 1.31 6.65 6.65 0 0 0-1.35 1.9 6 6 0 0 0-.58 2.23zm28.99-14.62a1.74 1.74 0 0 1-.58 1.34 1.84 1.84 0 0 1-2.56 0 1.71 1.71 0 0 1-.58-1.34 1.69 1.69 0 0 1 .58-1.33 1.81 1.81 0 0 1 2.56 0 1.72 1.72 0 0 1 .58 1.33zm-.55 25.12h-2.63v-18.14h2.63zm13.26-18.14c.05.49.09 1 .11 1.63s0 1.08 0 1.47h.08a6 6 0 0 1 2.52-2.58 7.34 7.34 0 0 1 3.68-1 6.37 6.37 0 0 1 5.17 2.06 8.16 8.16 0 0 1 1.73 5.42v11.13h-2.64v-10a13 13 0 0 0-.23-2.6 5.39 5.39 0 0 0-.79-2 3.82 3.82 0 0 0-1.51-1.3 5.44 5.44 0 0 0-2.39-.47 5.07 5.07 0 0 0-3.8 1.73 6.51 6.51 0 0 0-1.24 2.21 9.6 9.6 0 0 0-.46 3.15v9.31h-2.6V114.6s-.07-1.47-.12-2.09zm37.09 4.15a5 5 0 0 0-1.92-1.73 5.71 5.71 0 0 0-2.74-.68 7.12 7.12 0 0 0-2.86.56 6.54 6.54 0 0 0-2.19 1.55 6.94 6.94 0 0 0-1.4 2.33 8.47 8.47 0 0 0-.48 2.89 8.35 8.35 0 0 0 .48 2.87 7.13 7.13 0 0 0 1.38 2.3 6.2 6.2 0 0 0 2.17 1.55 7 7 0 0 0 2.87.56 5.81 5.81 0 0 0 4.92-2.36l2 1.47a8.58 8.58 0 0 1-2.84 2.29 8.9 8.9 0 0 1-4.05.85 10.6 10.6 0 0 1-4-.72 8.82 8.82 0 0 1-3-2 9 9 0 0 1-1.95-3 10.66 10.66 0 0 1 0-7.6 8.77 8.77 0 0 1 5-5 10.6 10.6 0 0 1 4-.72 9.5 9.5 0 0 1 3.7.8 7.31 7.31 0 0 1 3 2.34zm13.83 12.13a2.09 2.09 0 0 1-.58 1.45 2.1 2.1 0 0 1-3 0 2.12 2.12 0 0 1 0-2.91 2.1 2.1 0 0 1 3 0 2.1 2.1 0 0 1 .58 1.46zm-334.03-7.24h-34.33V108.2h8.58V67.86h-8.58V54.51h34.33v13.35h-8.58v40.34h8.58zM44.71 54.51h-18.6l25.28 66.76h19.07l25.27-66.76H77.14l-16.22 46.73-16.21-46.73zm58 13.35h30.52V54.51H98.94l-.4 1.06-18.68 49.33c.2 5.51 1.64 9.62 4.35 12.31q4.38 4.35 13.73 4.34h35.29v-12.87h-31.47a4.43 4.43 0 0 1-4.76-4.75V73.56q0-5.7 5.71-5.7z"/>
    </g>
  </g>
</svg>
