<svg version="1" xmlns="http://www.w3.org/2000/svg" width="1050.667" height="1050.667" viewBox="0 0 788.000000 788.000000"><path d="M.1 297.7v256.8l21.2 10.3c11.7 5.6 44.1 21.5 72.1 35.2 27.9 13.8 50.9 25 51.1 25 .1 0 19.5 9.5 43.1 21.1 23.6 11.6 51.5 25.3 61.9 30.4 36.8 17.9 64.4 31.5 103.9 50.9 21.9 10.8 40.2 19.6 40.6 19.6.4 0 21.8-10.4 47.5-23 25.7-12.7 46.8-23 47-23 .1 0 21.8-10.6 48.1-23.6 26.3-13 52-25.5 56.9-27.9 5-2.4 27-13.2 49-24s44.5-21.9 50-24.5c5.5-2.6 28.8-14.1 51.9-25.4 23-11.3 42.2-20.6 42.7-20.6s.9-110.4.9-257c0-141.4-.2-257-.4-257s-33.2 12.6-73.3 27.9c-116.2 44.5-153.7 58.9-171.3 65.6-9.1 3.5-27.3 10.5-40.5 15.5-37.3 14.3-69.3 26.6-88.9 34.1-9.8 3.8-18.6 6.9-19.6 6.9s-9.8-3.1-19.6-6.9C312.9 160.4.9 41 .4 41 .2 41 0 156.5.1 297.7zm178.7-39.5c.5.7 3.2 7.8 6 15.8 12.9 37.5 58.4 168.5 58.6 168.7.1.2 1.2-2.5 2.3-6 1.2-3.4 5.8-16.7 10.2-29.5 16.7-48 24.3-69.8 37.6-108.2 7.5-21.7 14.1-40.1 14.7-40.8.8-.9 9.5-1.2 37.4-1.2 19.9 0 36.5.3 36.7.7.3.5-3.5 11.4-8.4 24.3s-11.8 31.1-15.3 40.5c-11.8 31-75.7 200-76.1 201.2-.3 1-9 1.3-39 1.3-35.8 0-38.6-.1-39.2-1.8-.3-.9-3.2-8.7-6.5-17.2-3.2-8.5-25.6-67.7-49.7-131.5-24.2-63.8-43.7-116.3-43.5-116.7.3-.4 16.9-.8 36.8-.8 27.9 0 36.6.3 37.4 1.2zm353.7 26.3v27l-66.1.5-66 .5-3.7 2.5c-2 1.3-4.6 4.3-5.9 6.5l-2.3 4v136.1l2.4 3.6c1.3 1.9 4 4.6 5.9 5.9l3.6 2.4 66.3.3 66.3.3V526h-76.1c-88.8 0-91.8-.2-108.4-8.9-17.2-8.9-27.5-26.7-29.1-50.6l-.6-8 37.7-99.5c20.8-54.7 38.2-100.1 38.8-100.8.7-.9 15.3-1.2 69.1-1l68.1.3v27zm151 0v27l-16.7.3-16.8.2v160h34v54H546v-54h34V312l-16.7-.2-16.8-.3-.3-26c-.1-14.3 0-26.5.3-27.2.3-1.1 14.2-1.3 68.7-1.1l68.3.3v27z"/></svg>